PathFileType	4	(X/Y/Z)	C:\Users\Basilio\Documents\Thesis Gigler\squatting_fais\c3dfiles\054\SLS_front_pre2\markers_experimental.trc
DataRate	CameraRate	NumFrames	NumMarkers	Units	OrigDataRate	OrigDataStartFrame	OrigNumFrames
200.000000	200.000000	4	61	mm	200.000000	365	1461
Frame#	Time	FHD			LBHD			RBHD			C7			T10			CLAV			LSHO			LUUPA			LMUPA			LDUPA			LLEP			LMEP			LRAD			LUL			LRFIN			RSHO			RUPA1			RMUPA			RDUPA			RLEP			RMEP			RRAD			RUL			RUFIN			LASI			RASI			USACR			LSACR			RSACR			LTHI1			LTHI2			LTHI3			LTHI4			LLFC			LMFC			LTIB1			LTIB2			LTIB3			LTIB4			LLMAL			LMMAL			LHEE			LMT1			LMT2			LMT5			RTHI			RTHI2			RTHI3			RTHI4			RLFC			RMFC			RTIB1			RTIB2			RTIB3			RTIB4			RLMAL			RMMAL			RHEE			RMT1			RMT2			RMT5			
		X1	Y1	Z1	X2	Y2	Z2	X3	Y3	Z3	X4	Y4	Z4	X5	Y5	Z5	X6	Y6	Z6	X7	Y7	Z7	X8	Y8	Z8	X9	Y9	Z9	X10	Y10	Z10	X11	Y11	Z11	X12	Y12	Z12	X13	Y13	Z13	X14	Y14	Z14	X15	Y15	Z15	X16	Y16	Z16	X17	Y17	Z17	X18	Y18	Z18	X19	Y19	Z19	X20	Y20	Z20	X21	Y21	Z21	X22	Y22	Z22	X23	Y23	Z23	X24	Y24	Z24	X25	Y25	Z25	X26	Y26	Z26	X27	Y27	Z27	X28	Y28	Z28	X29	Y29	Z29	X30	Y30	Z30	X31	Y31	Z31	X32	Y32	Z32	X33	Y33	Z33	X34	Y34	Z34	X35	Y35	Z35	X36	Y36	Z36	X37	Y37	Z37	X38	Y38	Z38	X39	Y39	Z39	X40	Y40	Z40	X41	Y41	Z41	X42	Y42	Z42	X43	Y43	Z43	X44	Y44	Z44	X45	Y45	Z45	X46	Y46	Z46	X47	Y47	Z47	X48	Y48	Z48	X49	Y49	Z49	X50	Y50	Z50	X51	Y51	Z51	X52	Y52	Z52	X53	Y53	Z53	X54	Y54	Z54	X55	Y55	Z55	X56	Y56	Z56	X57	Y57	Z57	X58	Y58	Z58	X59	Y59	Z59	X60	Y60	Z60	X61	Y61	Z61	

366	1.825	-197.0201263427735	1771.62939453125	-1055.920288085938	-358.7712402343751	1724.53076171875	-1129.806030273438	-378.5854187011719	1722.744262695313	-990.6682128906252	-410.1601867675782	1554.60498046875	-1051.806518554688	-449.0967102050782	1224.4638671875	-1062.0927734375	-268.1463012695313	1493.795166015625	-1060.685913085938	-339.2198791503907	1549.634643554688	-1211.580444335938	-223.722396850586	1420.671752929688	-1362.007080078125	-185.2032318115235	1451.312866210938	-1355.8154296875	-158.7876281738282	1406.672973632813	-1386.266967773438	-103.281967163086	1404.100463867188	-1394.579956054688	-100.8755340576172	1337.199584960938	-1352.666259765625	164.4862213134766	1394.330322265625	-1359.81396484375	164.2720031738282	1368.4970703125	-1434.197021484375	251.579818725586	1407.337524414063	-1389.28857421875	-325.4446716308594	1538.133056640625	-904.385925292969	-188.9504089355469	1402.60986328125	-776.675964355469	-152.0537109375	1433.376220703125	-779.4829711914065	-123.0514068603516	1382.871948242188	-761.1848754882814	-79.40799713134767	1375.999267578125	-757.8917236328126	-77.46993255615236	1327.382934570313	-815.4263305664065	195.3145904541016	1436.267822265625	-816.0351562500002	189.4954223632813	1385.909790039063	-753.6971435546876	271.6573486328126	1454.527587890625	-787.9316406250002	-253.0226745605469	1051.713623046875	-1162.845092773438	-268.1493225097657	1076.68310546875	-915.1914672851565	-451.806854248047	1130.734497070313	-1053.47509765625	-452.8579101562501	1096.452392578125	-1078.8701171875	-457.5982055664064	1100.156494140625	-1021.875671386719	-298.0130004882813	794.9357910156252	-1225.6240234375	-252.4399871826172	723.2335815429689	-1213.149291992188	-207.3318634033204	736.2614135742189	-1204.741577148438	-271.7787170410157	669.2584228515626	-1192.118041992188	-246.4161071777344	520.6293945312501	-1157.072509765625	-225.0582733154297	533.3466186523439	-1020.636291503906	-224.811264038086	361.0164489746094	-1082.00634765625	-275.7684936523438	314.4795532226563	-1134.988403320313	-238.5826263427735	309.6905212402344	-1108.5380859375	-258.9643554687501	239.8288726806641	-1065.251953125	-336.7515258789063	114.1392135620117	-1094.823852539063	-306.9904479980469	134.7618408203125	-1003.668334960938	-407.4608764648439	105.6253204345703	-1036.402587890625	-198.5474243164063	53.88519668579103	-1015.728942871094	-189.374252319336	56.00427627563478	-1064.66357421875	-242.0417633056641	42.50302505493165	-1116.122924804688	-196.3929138183594	797.5758056640627	-836.0188598632815	-134.4108428955078	774.874938964844	-846.3814086914065	-109.3540496826172	793.4022216796877	-855.6171875000002	-114.6682281494141	694.3826904296876	-859.6832275390627	-82.08879852294923	608.9780883789064	-866.0864257812502	-52.47045516967775	633.7938842773439	-997.769226074219	4.36498785018921	527.6508178710939	-878.135681152344	-34.99320602416993	433.977996826172	-845.172790527344	9.746438026428224	442.6035766601564	-856.631286621094	39.67749023437501	401.7815246582032	-883.1284790039065	44.24728012084962	217.2213745117188	-867.3287353515627	80.05648040771486	242.5587615966797	-952.1047973632815	-3.767433404922486	173.01025390625	-928.6326293945315	218.3087158203126	195.5465087890626	-928.9185791015627	218.2655181884766	202.8038940429688	-881.0312500000002	171.3684997558594	174.5563201904297	-836.2112426757815	
367	1.83	-196.9319152832032	1771.377075195313	-1055.478271484375	-358.7435913085938	1724.455932617188	-1129.561157226563	-378.4863891601563	1722.55029296875	-990.3936157226565	-410.0351562500001	1554.52490234375	-1051.626098632813	-449.5048217773439	1224.455444335938	-1062.246948242188	-268.0061340332032	1493.44775390625	-1060.442504882813	-339.0807189941407	1549.576049804688	-1211.384033203125	-223.293685913086	1420.603393554688	-1362.283569335938	-185.9860382080078	1451.6669921875	-1356.164184570313	-159.0562591552735	1406.729614257813	-1386.64990234375	-103.4569320678711	1404.257690429688	-1395.206787109375	-101.1560516357422	1337.2119140625	-1353.166625976563	164.243896484375	1394.296264648438	-1361.1015625	163.4917755126953	1368.569458007813	-1435.541748046875	251.2782592773438	1407.390502929688	-1390.754516601563	-325.4895019531251	1537.928955078125	-904.039489746094	-189.2056427001953	1402.320068359375	-776.3145141601565	-152.4443664550782	1433.00244140625	-778.7425537109377	-123.3082427978516	1382.512084960938	-760.6754760742189	-79.77571105957033	1375.690185546875	-757.3531494140626	-77.4390106201172	1327.180786132813	-814.9284667968752	195.0296173095704	1435.834228515625	-814.7872314453127	189.2788543701172	1385.50439453125	-752.4600219726564	271.5448303222657	1454.164672851563	-786.3957519531252	-253.3304138183594	1051.628173828125	-1162.855224609375	-268.6809082031251	1076.325561523438	-915.097595214844	-451.870574951172	1130.728881835938	-1053.654052734375	-453.1299438476564	1096.3876953125	-1079.022583007813	-457.9429931640626	1100.037841796875	-1022.130676269531	-298.0915527343751	794.7714843750002	-1225.663330078125	-252.3379211425782	723.1571655273439	-1213.25537109375	-207.4399566650391	736.2460327148439	-1204.757080078125	-271.7413330078126	669.2332763671876	-1192.208740234375	-246.4015350341797	520.6124267578126	-1157.1005859375	-225.0989837646485	533.4129638671876	-1020.658325195313	-224.7672271728516	361.0004882812501	-1081.971801757813	-275.6423645019532	314.4235839843751	-1134.951782226563	-238.6069335937501	309.6870117187501	-1108.482299804688	-258.9736022949219	239.8342590332032	-1065.258178710938	-336.7940063476563	114.1382827758789	-1094.752319335938	-307.0079040527344	134.7764587402344	-1003.63037109375	-407.5165100097657	105.6223831176758	-1036.375854492188	-198.5366973876954	53.88575363159181	-1015.71728515625	-189.4591674804688	56.03348922729494	-1064.633666992188	-242.0212860107422	42.50143432617188	-1116.099365234375	-196.672348022461	797.443054199219	-836.2766113281252	-134.983154296875	774.6928710937502	-846.3853759765627	-109.6540679931641	793.2984619140627	-855.7482910156252	-115.1059646606446	694.2748413085939	-859.7755126953127	-82.28919219970705	608.8977050781251	-866.236267089844	-52.72430419921876	633.7638549804689	-997.8616333007815	4.075397014617921	527.5100097656251	-878.160827636719	-35.22653579711915	433.8650207519532	-845.7790527343752	9.515385627746584	442.516815185547	-856.9749145507815	39.44696807861329	401.7359924316407	-883.3279418945315	44.18682098388673	217.2038574218751	-867.5346679687502	79.91194152832033	242.5136108398438	-952.2781982421877	-3.87943196296692	173.085678100586	-928.8752441406252	218.1725769042969	195.5562896728516	-929.1323852539065	218.2096252441407	202.8381042480469	-881.159851074219	171.3025207519532	174.5006408691407	-836.478942871094	
368	1.835	-196.7829895019532	1771.211669921875	-1054.936401367188	-358.5330200195313	1724.374755859375	-1129.197631835938	-378.3879089355469	1722.41259765625	-989.9988403320315	-409.9631347656251	1554.4150390625	-1051.398559570313	-449.8273925781251	1224.414672851563	-1062.3583984375	-268.0757751464844	1493.158203125	-1060.26611328125	-338.9157714843751	1549.484497070313	-1211.19091796875	-223.5600891113282	1420.674072265625	-1362.48828125	-186.2157135009766	1451.621826171875	-1356.442260742188	-159.3188171386719	1406.7919921875	-1387.033569335938	-103.8164672851563	1404.411254882813	-1395.751831054688	-101.5105743408203	1337.39404296875	-1353.692626953125	164.0107116699219	1394.322875976563	-1362.628540039063	163.076904296875	1368.674438476563	-1437.147094726563	250.6597595214844	1407.648559570313	-1392.429321289063	-325.4781494140626	1537.560424804688	-903.7307128906252	-189.3920288085938	1401.876953125	-775.8921508789065	-152.8170776367188	1432.78125	-778.2806396484377	-123.7659072875977	1382.08837890625	-760.0720825195314	-79.95702362060548	1375.454711914063	-756.8836059570314	-77.56461334228517	1326.9345703125	-814.570983886719	194.8663482666016	1435.50830078125	-813.5847167968752	189.0042877197266	1385.119995117188	-751.1464843750001	271.1695861816407	1453.717529296875	-784.8494262695315	-253.6457824707032	1051.491577148438	-1162.913940429688	-268.9737548828126	1075.981201171875	-915.1762695312502	-452.1280212402345	1130.630981445313	-1053.849731445313	-454.8287048339845	1096.648559570313	-1078.986938476563	-458.2062377929689	1099.95263671875	-1022.413818359375	-298.1622314453126	794.681579589844	-1225.723510742188	-252.6152038574219	723.1580810546876	-1213.169921875	-207.4891052246094	736.2182617187501	-1204.824584960938	-271.8455810546876	669.2095947265626	-1192.232666015625	-246.3393859863282	520.6067504882814	-1157.215698242188	-225.2084960937501	533.4210205078126	-1020.6953125	-224.7736511230469	360.9942932128907	-1081.9326171875	-275.6364440917969	314.3729553222657	-1134.90478515625	-238.5905303955079	309.6819763183594	-1108.4619140625	-258.9358215332032	239.8477783203126	-1065.207885742188	-336.8281860351563	114.1298294067383	-1094.746459960938	-307.0024719238282	134.7241516113282	-1003.608215332031	-407.4507751464845	105.5771484375	-1036.39697265625	-198.5589447021485	53.85952758789064	-1015.672119140625	-189.3591918945313	56.05379486083986	-1064.61279296875	-242.0146789550782	42.50740432739259	-1116.037963867188	-197.1324157714844	797.181823730469	-836.4130859375002	-135.3779754638672	774.604919433594	-846.4541625976565	-109.9592514038086	793.225524902344	-855.9099731445315	-115.5400085449219	694.1907958984376	-859.8522949218752	-82.64688873291017	608.7120971679689	-866.3504638671877	-53.05631256103517	633.7709960937501	-997.9561767578127	3.810275077819825	527.4548339843751	-878.2489013671877	-35.48433685302735	433.8531494140626	-845.674743652344	9.225263595581056	442.4249877929689	-857.0430297851565	39.25055313110352	401.6569824218751	-883.4905395507815	44.08636474609376	217.1433258056641	-867.757019042969	79.72901153564455	242.5675964355469	-952.5187988281252	-4.003153800964356	173.0277252197266	-929.153747558594	218.0319213867188	195.6003723144532	-929.424743652344	218.0923461914063	202.8634338378907	-881.4003906250002	171.1950073242188	174.4615020751953	-836.700622558594	
369	1.84	-196.6728210449219	1771.051391601563	-1054.44775390625	-358.4299621582032	1724.308715820313	-1128.794677734375	-378.2730407714844	1722.244262695313	-989.5089111328127	-409.8963623046876	1554.296875	-1051.223876953125	-450.1603393554689	1224.354614257813	-1062.508911132813	-268.0178833007813	1493.045654296875	-1060.0380859375	-338.7290344238282	1549.44775390625	-1211.005493164063	-223.703598022461	1420.740600585938	-1362.733520507813	-186.3299560546875	1451.92236328125	-1356.71923828125	-159.6829528808594	1406.907104492188	-1387.447387695313	-104.1925659179688	1404.623168945313	-1396.273681640625	-101.47119140625	1337.419921875	-1354.355102539063	164.0673980712891	1394.494873046875	-1363.915283203125	162.5741119384766	1368.860595703125	-1438.411499023438	250.1789550781251	1407.781127929688	-1394.04736328125	-325.4916381835938	1537.392456054688	-903.437194824219	-189.4493865966797	1401.553466796875	-775.5678710937502	-153.0771484375	1432.3828125	-777.8442993164065	-123.9834823608399	1381.818115234375	-759.5059204101564	-80.11903381347658	1375.081298828125	-756.2592773437501	-77.71005249023439	1326.794555664063	-813.9104614257815	194.8598327636719	1435.1962890625	-812.381042480469	188.8484039306641	1384.6552734375	-750.1571655273439	270.8949279785157	1453.222412109375	-783.3086547851565	-253.8348236083985	1051.383544921875	-1162.975463867188	-269.2955017089844	1075.788818359375	-915.242614746094	-452.5423889160157	1130.541870117188	-1054.06982421875	-455.2359313964845	1096.642333984375	-1079.197509765625	-458.4680175781251	1099.861328125	-1022.616516113281	-298.2941284179688	794.6209716796877	-1225.820190429688	-252.6379547119141	723.1643066406251	-1213.3359375	-207.5731048583985	736.2166137695314	-1204.813354492188	-271.9190979003907	669.1639404296876	-1192.3095703125	-246.3336181640626	520.4817504882814	-1157.049926757813	-225.2578735351563	533.4890136718751	-1020.716186523438	-224.7787322998047	361.0134582519532	-1081.915893554688	-275.6070556640626	314.3091125488282	-1134.870361328125	-238.4455718994141	309.5943908691407	-1108.400146484375	-258.7167053222657	240.0564270019532	-1064.790283203125	-336.8919982910157	114.1116256713867	-1094.693969726563	-307.0494384765626	134.7459564208985	-1003.582397460938	-407.5033569335939	105.6089248657227	-1036.390502929688	-198.4763793945313	53.81829833984376	-1015.693969726563	-189.3645782470703	56.06197357177736	-1064.577514648438	-242.0161895751954	42.54462814331055	-1116.032470703125	-197.5960235595704	796.9336547851565	-836.5908203125002	-135.8108215332032	774.5169677734377	-846.4838867187502	-110.3922424316407	793.0568847656252	-855.9570312500002	-115.970443725586	694.1713256835939	-859.9921875000002	-83.06019592285158	608.6656494140626	-866.425476074219	-53.30238342285158	633.7421264648439	-998.0305175781252	3.646254777908326	527.3980712890626	-878.415466308594	-35.68795394897462	433.5952148437501	-846.1243286132815	8.883213996887209	442.4623107910157	-857.228210449219	39.10232543945313	401.5720214843751	-883.7092895507815	43.90690231323243	217.0782165527344	-868.1124267578127	79.62073516845705	242.5879211425782	-952.7864379882815	-4.163448810577393	173.0217590332032	-929.3364257812502	217.8875274658204	195.6697998046876	-929.5657958984377	218.0299072265626	202.8866271972657	-881.7274169921877	171.0188751220703	174.3891754150391	-836.9838867187502	
